# AST/ASF file generated using VICON BodyLanguage
# -----------------------------------------------
:version 1.10
:name VICON
:units
  mass 1.0
  length 0.45
  angle deg
:documentation
   .ast/.asf automatically generated from VICON data using
   VICON BodyBuilder and BodyLanguage model FoxedUp or BRILLIANT.MOD
:root
   order TX TY TZ RX RY RZ
   axis XYZ
   position 0 0 0  
   orientation 0 0 0 
:bonedata
  begin
     id 1 
     name lhipjoint
     direction 0.623529 -0.717805 0.309788 
     length 2.23224 
     axis 0 0 0  XYZ
  end
  begin
     id 2 
     name lfemur
     direction 0.34202 -0.939693 0  
     length 7.11402  
     axis 0 0 20  XYZ
    dof rx ry rz
    limits (-160.0 20.0)
           (-70.0 70.0)
           (-60.0 70.0)
  end
  begin
     id 3 
     name ltibia
     direction 0.34202 -0.939693 0   
     length 6.78496   
     axis 0 0 20   XYZ
    dof rx
    limits (-10.0 170.0)
  end
  begin
     id 4 
     name lfoot
     direction 0.125078 -0.343648 0.930732   
     length 1.84054   
     axis -90 7.62852e-016 20   XYZ
    dof rx rz
    limits (-45.0 90.0)
           (-70.0 20.0)
  end
  begin
     id 5 
     name ltoes
     direction 1.53565e-011 -4.21893e-011 1   
     length 0.916474   
     axis -90 7.62852e-016 20   XYZ
    dof rx
    limits (-90.0 20.0)
  end
  begin
     id 6 
     name rhipjoint
     direction -0.564688 -0.757748 0.327026   
     length 2.11457  
     axis 0 0 0  XYZ 
  end
  begin
     id 7 
     name rfemur
     direction -0.34202 -0.939693 0   
     length 7.14609   
     axis 0 0 -20   XYZ
    dof rx ry rz
    limits (-160.0 20.0)
           (-70.0 70.0)
           (-70.0 60.0)
  end
  begin
     id 8 
     name rtibia
     direction -0.34202 -0.939693 0   
     length 6.78101   
     axis 0 0 -20   XYZ
    dof rx
    limits (-10.0 170.0)
 end
 begin
     id 9 
     name rfoot
     direction -0.0992671 -0.272734 0.956955   
     length 1.96168  
     axis -90 -7.62852e-016 -20   XYZ
    dof rx rz
    limits (-45.0 90.0)
           (-20.0 70.0)
  end
  begin
     id 10 
     name rtoes
     direction -1.5356e-011 -4.21891e-011 1   
     length 0.982933   
     axis -90 -7.62852e-016 -20   XYZ
    dof rx
    limits (-90.0 20.0)
  end
  begin
     id 11 
     name lowerback
     direction -0.00596953 0.998668 0.0512524   
     length 1.87557   
     axis 0 0 0   XYZ
    dof rx ry rz
    limits (-20.0 45.0)
           (-30.0 30.0)
           (-30.0 30.0)
  end
  begin
     id 12 
     name upperback
     direction 0.00584879 0.999652 0.0257308   
     length 1.87883   
     axis 0 0 0   XYZ
    dof rx ry rz
    limits (-20.0 45.0)
           (-30.0 30.0)
           (-30.0 30.0)
  end
  begin
     id 13 
     name thorax
     direction 0.010104 0.999947 0.00178881   
     length 1.87779   
     axis 0 0 0   XYZ
    dof rx ry rz
    limits (-20.0 45.0)
           (-30.0 30.0)
           (-30.0 30.0)
  end
  begin
     id 14 
     name lowerneck
     direction 0.0120771 0.995934 -0.0892773   
     length 1.40897   
     axis 0 0 0   XYZ
    dof rx ry rz
    limits (-20.0 45.0)
           (-30.0 30.0)
           (-30.0 30.0)
  end
  begin
     id 15 
     name upperneck
     direction -0.030568 0.999465 -0.0116366   
     length 1.38661   
     axis 0 0 0   XYZ
    dof rx ry rz
    limits (-20.0 45.0)
           (-30.0 30.0)
           (-30.0 30.0)
  end
  begin
     id 16
     name head
     direction -0.0170715 0.999854 -0.00104426  
     length 1.47052  
     axis 0 0 0   XYZ
    dof rx ry rz
    limits (-20.0 45.0)
           (-30.0 30.0)
           (-30.0 30.0)
  end
  begin
     id 17 
     name lclavicle
     direction 0.977763 0.206143 0.038532  
     length 3.02424  
     axis 0 0 0   XYZ
    dof ry rz
    limits (-20.0 10.0)
           (0.0 20.0)
  end
  begin
     id 18 
     name lhumerus
     direction 1 -4.48965e-011 -2.62654e-027   
     length 4.68382   
     axis 180 -30 -90   XYZ
    dof rx ry rz
    limits (-60.0 90.0)
           (-90.0 90.0)
           (-90.0 90.0)
  end
  begin
     id 19
     name lradius
     direction 1 -4.48973e-011 -1.54954e-027   
     length 2.98124   
     axis 180 -30 -90   XYZ
    dof rx
    limits (-10.0 170.0)
  end
  begin
     id 20
     name lwrist
     direction 1 -4.48959e-011 7.20928e-028   
     length 1.49062   
     axis -5.52449e-016 90 90   XYZ
    dof ry
    limits (-180.0 0.0)
 end
  begin
     id 21 
     name lhand
     direction 1 -4.48971e-011 1.44186e-027   
     length 0.707595   
     axis -9.20027e-016 90 90   XYZ
    dof rx rz
    limits (-90.0 90.0)
           (-45.0 45.0)
  end
  begin
     id 22 
     name lfingers
     direction 1 -4.48985e-011 2.88371e-027   
     length 0.570481   
     axis -1.84005e-015 90 90   XYZ
    dof rx
    limits (0.0 90.0)
  end
  begin
     id 23
     name lthumb
     direction 0.707107 -6.34929e-011 0.707107   
     length 0.819101   
     axis -90 45 2.85299e-015   XYZ
    dof rx rz
    limits (-45.0 45.0)
           (-45.0 45.0)
  end
  begin
     id 24 
     name rclavicle
     direction -0.958661 0.284411 -0.00895327   
     length 3.11921  
     axis 0 0 0   XYZ 
    dof ry rz
    limits (-10.0 20.0)
           (-20.0 0.0)
  end
  begin
     id 25 
     name rhumerus
     direction -1 -4.48963e-011 -4.22193e-027  
     length 4.75876   
     axis 180 30 90   XYZ
    dof rx ry rz
    limits (-90.0 60.0)
           (-90.0 90.0)
           (-90.0 90.0)
  end
  begin
     id 26 
     name rradius
     direction -1 -4.48968e-011 -1.07616e-027   
     length 2.93293   
     axis 180 30 90   XYZ
    dof rx
    limits (-10.0 170.0)
  end
  begin
     id 27 
     name rwrist
     direction -1 -4.48965e-011 7.20928e-028   
     length 1.46647   
     axis -5.52449e-016 -90 -90   XYZ
    dof ry
    limits (-180.0 0.0)
  end
  begin
     id 28
     name rhand
     direction -1 -4.48971e-011 1.44186e-027   
     length 0.831748   
     axis -9.20027e-016 -90 -90   XYZ
    dof rx rz
    limits (-90.0 90.0)
           (-45.0 45.0)
  end
  begin
     id 29
     name rfingers
     direction -1 -4.48961e-011 2.88371e-027   
     length 0.670577   
     axis -1.84005e-015 -90 -90   XYZ
    dof rx
    limits (0.0 90.0)
  end
  begin
     id 30
     name rthumb
     direction -0.707107 -6.34929e-011 0.707107   
     length 0.962818   
     axis -90 -45 -2.85299e-015   XYZ
    dof rx rz
    limits (-45.0 45.0)
           (-45.0 45.0)
  end
:hierarchy
  begin
    root lhipjoint rhipjoint lowerback
    lhipjoint lfemur
    lfemur ltibia
    ltibia lfoot
    lfoot ltoes
    rhipjoint rfemur
    rfemur rtibia
    rtibia rfoot
    rfoot rtoes
    lowerback upperback
    upperback thorax
    thorax lowerneck lclavicle rclavicle
    lowerneck upperneck
    upperneck head
    lclavicle lhumerus
    lhumerus lradius
    lradius lwrist
    lwrist lhand lthumb
    lhand lfingers
    rclavicle rhumerus
    rhumerus rradius
    rradius rwrist
    rwrist rhand rthumb
    rhand rfingers
  end

#!OML:ASF E:\id_vita\Project 1\Capture day 1\Session 1\Female.ASF
:FULLY-SPECIFIED
:DEGREES
69
root -26.1347 15.9236 -0.351555 55.2828 89.3033 34.3441
lowerback -10.7704 -1.52904 -5.03261
upperback -2.66916 -1.42361 0.854375
thorax 3.39314 -0.704471 3.53705
lowerneck -0.413679 0.102007 -2.34238
upperneck 17.6654 0.148989 3.70847
head 5.36969 0.332365 1.57526
rclavicle -3.13086e-015 2.05742e-014
rhumerus -53.5704 -33.9961 -57.5067
rradius 18.1237
rwrist 26.7328
rhand -14.8003 9.8706
rfingers 7.12502
rthumb 11.3573 -19.8019
lclavicle -3.13086e-015 2.05742e-014
lhumerus -22.9797 26.3672 82.1714
lradius 23.2921
lwrist -29.0703
lhand -5.52529 24.3724
lfingers 7.12502
lthumb 20.2886 53.3327
rfemur -49.6256 8.08608 18.778
rtibia 15.6814
rfoot -0.122483 -8.11894
rtoes 1.10861
lfemur -12.5242 -10.6658 -25.3201
ltibia 21.7198
lfoot -26.7241 7.0128
ltoes 1.81387
70
root -26.0265 15.9015 -0.355721 41.5835 89.135 20.7525
lowerback -11.0205 -1.42667 -4.87167
upperback -2.59906 -1.2903 0.830677
thorax 3.58748 -0.643408 3.43612
lowerneck -0.436848 0.0879679 -2.43025
upperneck 17.7114 0.124738 3.78298
head 5.3883 0.320782 1.61286
rclavicle 1.02374e-014 -1.38155e-014
rhumerus -53.6061 -33.7387 -57.7059
rradius 18.1684
rwrist 26.657
rhand -14.7583 9.07657
rfingers 7.12502
rthumb 11.3979 -20.5937
lclavicle 1.02374e-014 -1.38155e-014
lhumerus -22.467 25.7783 82.5357
lradius 23.5453
lwrist -28.2943
lhand -5.46986 23.9406
lfingers 7.12502
lthumb 20.3419 52.8953
rfemur -49.4268 8.32576 18.9751
rtibia 14.5877
rfoot 0.354305 -7.83761
rtoes -3.10676
lfemur -11.908 -10.5498 -25.4097
ltibia 21.5356
lfoot -26.6712 7.01414
ltoes 1.53989
71
root -25.9225 15.885 -0.357956 53.929 89.1963 32.8852
lowerback -11.5824 -1.54647 -4.94144
upperback -2.58315 -1.40828 0.858855
thorax 3.92754 -0.709323 3.4802
lowerneck -0.212072 0.161271 -2.4591
upperneck 17.4505 0.220104 3.79309
head 5.26578 0.360681 1.62143
rclavicle 1.58531e-014 -1.22253e-014
rhumerus -53.8171 -33.9967 -57.1375
rradius 17.9007
rwrist 27.3957
rhand -14.7543 9.71921
rfingers 7.12502
rthumb 11.4018 -19.9508
lclavicle 1.58531e-014 -1.22253e-014
lhumerus -21.9884 25.1016 83.0247
lradius 23.7936
lwrist -28.0313
lhand -6.10474 23.7865
lfingers 7.12502
lthumb 19.7317 52.805
rfemur -49.488 8.29089 18.8702
rtibia 13.4659
rfoot 0.773594 -7.74572
rtoes -5.8929
lfemur -11.72 -10.7226 -25.5076
ltibia 21.5462
lfoot -26.6788 6.81592
ltoes 2.09885
72
root -25.826 15.8756 -0.355782 83.7133 89.3822 62.6933
lowerback -11.51 -1.72136 -4.96301
upperback -2.62365 -1.64412 0.909927
thorax 3.87021 -0.824071 3.5116
lowerneck -0.135584 0.242798 -2.64932
upperneck 17.3189 0.310217 3.98205
head 5.20748 0.401605 1.71456
rclavicle 1.35671e-014 -3.78685e-014
rhumerus -53.9183 -33.9411 -56.9356
rradius 17.7639
rwrist 27.7462
rhand -14.9578 9.84334
rfingers 7.12502
rthumb 11.2055 -19.8374
lclavicle 1.35671e-014 -3.78685e-014
lhumerus -21.6449 24.4906 83.4264
lradius 24.0034
lwrist -28.1574
lhand -6.90089 24.0407
lfingers 7.12502
lthumb 18.9661 53.1361
rfemur -49.1223 8.35349 18.5868
rtibia 12.18
rfoot 1.12661 -8.18914
rtoes -5.37845
lfemur -11.4621 -10.6728 -25.5031
ltibia 21.8418
lfoot -26.9736 6.2107
ltoes 2.11785
73
root -25.7475 15.8742 -0.344935 142.47 89.2567 121.269
lowerback -11.252 -1.93812 -4.97003
upperback -2.79504 -1.94705 0.975848
thorax 3.58083 -0.962418 3.54626
lowerneck -0.580467 0.194805 -2.68822
upperneck 17.656 0.252761 3.96873
head 5.38973 0.376646 1.72013
rclavicle -1.64494e-014 -8.54774e-015
rhumerus -54.2688 -34.337 -56.2932
rradius 17.6181
rwrist 28.3824
rhand -14.9223 10.0822
rfingers 7.12502
rthumb 11.2397 -19.5967
lclavicle -1.64494e-014 -8.54774e-015
lhumerus -21.2081 24.1504 83.7505
lradius 24.1001
lwrist -28.2313
lhand -7.12788 24.0758
lfingers 7.12502
lthumb 18.7478 53.1924
rfemur -49.0724 8.54167 18.0948
rtibia 11.1198
rfoot 1.95037 -8.805
rtoes -5.54195
lfemur -11.5629 -10.6255 -25.2248
ltibia 22.0045
lfoot -27.0589 4.75852
ltoes 4.20958
74
root -25.6727 15.8747 -0.328316 162.401 88.6745 140.767
lowerback -11.3381 -2.16778 -5.14009
upperback -2.94878 -2.22445 0.991182
thorax 3.50134 -1.0931 3.61735
lowerneck -1.00592 0.113084 -2.5172
upperneck 17.9159 0.159186 3.79759
head 5.54768 0.335611 1.63783
rclavicle -1.9307e-014 -7.25564e-015
rhumerus -54.9062 -35.5277 -54.8964
rradius 17.2025
rwrist 29.9009
rhand -14.7787 10.7718
rfingers 7.12502
rthumb 11.3782 -18.8995
lclavicle -1.9307e-014 -7.25564e-015
lhumerus -20.5819 23.6214 84.1066
lradius 24.1687
lwrist -27.861
lhand -7.10144 24.0496
lfingers 7.12502
lthumb 18.7733 53.1637
rfemur -49.418 8.85954 17.2444
rtibia 10.3731
rfoot 2.82224 -9.61926
rtoes -4.78547
lfemur -11.9192 -10.8269 -24.9659
ltibia 21.958
lfoot -26.8212 3.02122
ltoes 6.92619
